<svg width="32" height="24" viewBox="0 0 32 24" fill="none" xmlns="http://www.w3.org/2000/svg">
<path d="M30 3.21505e-07H2C1.73731 -0.00014866 1.47718 0.0514812 1.23446 0.151938C0.991739 0.252394 0.771201 0.399708 0.585455 0.585455C0.399708 0.771201 0.252394 0.991739 0.151938 1.23446C0.0514812 1.47718 -0.00014866 1.73731 3.21505e-07 2V22C-0.00014866 22.2627 0.0514812 22.5228 0.151938 22.7655C0.252394 23.0083 0.399708 23.2288 0.585455 23.4145C0.771201 23.6003 0.991739 23.7476 1.23446 23.8481C1.47718 23.9485 1.73731 24.0001 2 24H30C30.2627 24.0001 30.5228 23.9485 30.7655 23.8481C31.0083 23.7476 31.2288 23.6003 31.4145 23.4145C31.6003 23.2288 31.7476 23.0083 31.8481 22.7655C31.9485 22.5228 32.0001 22.2627 32 22V2C32.0001 1.73731 31.9485 1.47718 31.8481 1.23446C31.7476 0.991739 31.6003 0.771201 31.4145 0.585455C31.2288 0.399708 31.0083 0.252394 30.7655 0.151938C30.5228 0.0514812 30.2627 -0.00014866 30 3.21505e-07ZM8 20C7.99895 18.9395 7.57719 17.9227 6.82727 17.1727C6.07735 16.4228 5.06054 16.0011 4 16V8C5.06054 7.99895 6.07735 7.57719 6.82727 6.82727C7.57719 6.07735 7.99895 5.06054 8 4H24C24.0011 5.06054 24.4228 6.07735 25.1727 6.82727C25.9227 7.57719 26.9395 7.99895 28 8V16C26.9395 16.0011 25.9227 16.4228 25.1727 17.1727C24.4228 17.9227 24.0011 18.9395 24 20H8Z" fill="white"/>
<path d="M16 7.99994C15.2089 7.99994 14.4355 8.23454 13.7777 8.67406C13.1199 9.11359 12.6072 9.7383 12.3045 10.4692C12.0017 11.2001 11.9225 12.0044 12.0769 12.7803C12.2312 13.5562 12.6122 14.269 13.1716 14.8284C13.731 15.3878 14.4437 15.7687 15.2196 15.9231C15.9956 16.0774 16.7998 15.9982 17.5307 15.6955C18.2616 15.3927 18.8864 14.88 19.3259 14.2222C19.7654 13.5644 20 12.7911 20 11.9999C19.999 10.9394 19.5772 9.92259 18.8273 9.17267C18.0774 8.42275 17.0605 8.00099 16 7.99994Z" fill="white"/>
</svg>
