<svg width="27" height="24" viewBox="0 0 27 24" fill="none" xmlns="http://www.w3.org/2000/svg">
<path d="M6.88205 6.47058H0.29411C0.131727 6.47058 0 6.60226 0 6.7647V23.1176C0 23.6049 0.395025 24 0.882331 24H6.88205C7.04443 24 7.17616 23.8683 7.17616 23.7059V6.7647C7.17616 6.60226 7.04443 6.47058 6.88205 6.47058ZM4.64709 20.4117H2.52954C2.04228 20.4117 1.6472 20.0167 1.6472 19.5293C1.6472 19.042 2.04223 18.647 2.52954 18.647H4.64709C5.13434 18.647 5.52942 19.042 5.52942 19.5293C5.52942 20.0167 5.1344 20.4117 4.64709 20.4117ZM4.64709 16.1176H2.52954C2.04228 16.1176 1.6472 15.7226 1.6472 15.2352C1.6472 14.748 2.04223 14.3529 2.52954 14.3529H4.64709C5.13434 14.3529 5.52942 14.7479 5.52942 15.2352C5.52942 15.7226 5.1344 16.1176 4.64709 16.1176ZM4.64709 11.8235H2.52954C2.04228 11.8235 1.6472 11.4285 1.6472 10.9412C1.6472 10.4538 2.04223 10.0588 2.52954 10.0588H4.64709C5.13434 10.0588 5.52942 10.4538 5.52942 10.9412C5.52942 11.4285 5.1344 11.8235 4.64709 11.8235Z" fill="white"/>
<path d="M25.5871 0H0.882331C0.395025 0 0 0.395094 0 0.882369V4.41179C0 4.57418 0.131675 4.70591 0.29411 4.70591H26.1753C26.3377 4.70591 26.4694 4.57423 26.4694 4.41179V0.882369C26.4694 0.395094 26.0744 0 25.5871 0ZM3.35278 2.94118C3.02791 2.94118 2.76456 2.67782 2.76456 2.35293C2.76456 2.02805 3.02791 1.76469 3.35278 1.76469C3.67765 1.76469 3.941 2.02805 3.941 2.35293C3.941 2.67782 3.67765 2.94118 3.35278 2.94118ZM5.70561 2.94118C5.38074 2.94118 5.11739 2.67782 5.11739 2.35293C5.11739 2.02805 5.38074 1.76469 5.70561 1.76469C6.03048 1.76469 6.29383 2.02805 6.29383 2.35293C6.29383 2.67782 6.03048 2.94118 5.70561 2.94118ZM8.05849 2.94118C7.73362 2.94118 7.47027 2.67782 7.47027 2.35293C7.47027 2.02805 7.73362 1.76469 8.05849 1.76469C8.38336 1.76469 8.64671 2.02805 8.64671 2.35293C8.64666 2.67782 8.38331 2.94118 8.05849 2.94118Z" fill="white"/>
<path d="M26.1759 6.47058H9.23552C9.07313 6.47058 8.94141 6.60226 8.94141 6.7647V23.7059C8.94141 23.8682 9.07308 24 9.23552 24H25.5877C26.075 24 26.4701 23.6049 26.4701 23.1176V6.7647C26.4701 6.60226 26.3384 6.47058 26.1759 6.47058ZM20.9409 17.5882V19.9411C20.9409 20.4284 20.5459 20.8235 20.0586 20.8235H15.3529C14.8656 20.8235 14.4706 20.4285 14.4706 19.9411V17.5882C14.4706 16.6617 14.8626 15.8256 15.4888 15.2353C13.3595 13.2277 14.7928 9.64705 17.7057 9.64705C20.6212 9.64705 22.0496 13.23 19.9227 15.2353C20.5489 15.8256 20.9409 16.6617 20.9409 17.5882Z" fill="white"/>
</svg>
