<svg width="31" height="31" viewBox="0 0 31 31" fill="none" xmlns="http://www.w3.org/2000/svg">
<path d="M21.5749 0.80957C26.6589 0.80957 30.0742 4.37674 30.0742 9.68465V21.9345C30.0742 27.2424 26.6589 30.8096 21.5734 30.8096H8.57349C3.48956 30.8096 0.0742188 27.2424 0.0742188 21.9345V9.68465C0.0742188 4.37674 3.48956 0.80957 8.57349 0.80957H21.5749ZM23.2291 16.6346C21.6212 15.6316 20.3798 17.0402 20.0449 17.4907C19.7222 17.9257 19.4446 18.4055 19.152 18.8854C18.437 20.0696 17.618 21.435 16.2001 22.2291C14.1397 23.3699 12.5755 22.3189 11.4503 21.5542C11.0279 21.2693 10.6177 21 10.2089 20.8204C9.20131 20.3854 8.29478 20.8808 6.94932 22.5898C6.24341 23.4829 5.54353 24.3684 4.83459 25.2507C4.41074 25.7786 4.5118 26.5929 5.08347 26.9458C5.99604 27.5077 7.10921 27.8096 8.36719 27.8096H21.0088C21.7222 27.8096 22.4372 27.712 23.119 27.4891C24.6545 26.9876 25.8733 25.839 26.5098 24.322C27.0468 23.0464 27.3077 21.4984 26.8054 20.2105C26.638 19.7833 26.3876 19.3854 26.0362 19.0356C25.1146 18.1207 24.2533 17.2662 23.2291 16.6346ZM9.82251 6.80957C7.75454 6.80957 6.07422 8.49217 6.07422 10.5596C6.07422 12.627 7.75454 14.3096 9.82251 14.3096C11.889 14.3096 13.5708 12.627 13.5708 10.5596C13.5708 8.49217 11.889 6.80957 9.82251 6.80957Z" fill="white"/>
</svg>
