<svg width="33" height="30" viewBox="0 0 33 30" fill="none" xmlns="http://www.w3.org/2000/svg">
<path fill-rule="evenodd" clip-rule="evenodd" d="M29.9302 12.0082L31.1297 12.9623C31.6262 13.3571 32.3505 13.2771 32.7478 12.7835C33.1448 12.2899 33.0644 11.5696 32.5679 11.1747L20.0956 1.25405C17.9936 -0.418018 15.0065 -0.418018 12.9044 1.25405L0.432082 11.1747C-0.0643752 11.5696 -0.144864 12.2899 0.252301 12.7835C0.649452 13.2771 1.37387 13.3571 1.87033 12.9623L3.06981 12.0082V27.7109H1.1512C0.515426 27.7109 4.3768e-05 28.2233 4.3768e-05 28.8554C4.3768e-05 29.4875 0.515426 30 1.1512 30H31.8488C32.4845 30 32.9999 29.4875 32.9999 28.8554C32.9999 28.2233 32.4845 27.7109 31.8488 27.7109H29.9302V12.0082ZM12.2791 9.77935C12.2791 7.46156 14.1688 5.58262 16.5 5.58262C18.8311 5.58262 20.7209 7.46156 20.7209 9.77935C20.7209 12.0972 18.8311 13.9761 16.5 13.9761C14.1688 13.9761 12.2791 12.0972 12.2791 9.77935ZM16.5758 15.5022C17.5963 15.5022 18.4755 15.502 19.1797 15.5962C19.9343 15.6971 20.6577 15.9246 21.2443 16.5079C21.8311 17.0913 22.0598 17.8104 22.1612 18.5608C22.2499 19.217 22.2555 20.0264 22.2558 20.961C22.2558 21.0234 22.2558 21.0863 22.2558 21.1496V27.7109H19.9534V21.225C19.9534 20.1136 19.951 19.3951 19.8795 18.8657C19.8124 18.3692 19.704 18.2137 19.6164 18.1266C19.5287 18.0394 19.3722 17.9317 18.8729 17.8649C18.3404 17.7937 17.6178 17.7913 16.5 17.7913C15.3821 17.7913 14.6595 17.7937 14.1272 17.8649C13.6279 17.9317 13.4713 18.0394 13.3837 18.1266C13.2961 18.2137 13.1877 18.3692 13.1206 18.8657C13.049 19.3951 13.0465 20.1136 13.0465 21.225V27.7109H10.7442V21.1496C10.7441 20.1351 10.7441 19.2608 10.8388 18.5608C10.9402 17.8104 11.169 17.0913 11.7557 16.5079C12.3424 15.9246 13.0657 15.6971 13.8204 15.5962C14.5244 15.502 15.4038 15.5022 16.4243 15.5022H16.5758Z" fill="white"/>
</svg>
