<svg width="31" height="30" viewBox="0 0 31 30" fill="none" xmlns="http://www.w3.org/2000/svg">
<path d="M29.2699 15.8736C27.1546 14.4252 26.4983 11.5494 27.7757 9.32662C28.5435 7.99045 28.1439 6.67009 27.5139 5.87997C26.8838 5.09007 25.6854 4.40675 24.212 4.85784C21.7611 5.60855 19.1032 4.32883 18.1617 1.94418C17.5958 0.510757 16.3143 0 15.3039 0C14.2934 0 13.012 0.510757 12.4461 1.94425C11.5046 4.32898 8.84693 5.60855 6.39574 4.85792C4.92221 4.4069 3.724 5.09007 3.09385 5.88004C2.46384 6.67017 2.06424 7.99037 2.83205 9.3267C4.10948 11.5494 3.45312 14.4252 1.33782 15.8736C0.0662036 16.7444 -0.146548 18.1073 0.078197 19.0925C0.302942 20.0776 1.08611 21.2132 2.6096 21.446C5.14383 21.8331 6.98289 24.1393 6.79657 26.6962C6.68442 28.2333 7.6174 29.2494 8.52776 29.6879C9.4382 30.1263 10.8143 30.2223 11.9461 29.1762C12.8875 28.3064 14.0959 27.8712 15.3038 27.8712C16.5122 27.8712 17.7199 28.3061 18.6614 29.1762C19.7934 30.2223 21.1696 30.1264 22.0799 29.6879C22.9903 29.2495 23.9232 28.2333 23.8111 26.6962C23.6248 24.1393 25.4639 21.8332 27.9981 21.446C29.5216 21.2132 30.3046 20.0776 30.5295 19.0925C30.7543 18.1072 30.5414 16.7443 29.2699 15.8736ZM15.3039 25.6618C9.75973 25.6618 5.24925 21.1513 5.24925 15.6072C5.24925 10.063 9.75966 5.55247 15.3039 5.55247C20.8481 5.55247 25.3585 10.063 25.3585 15.6071C25.3584 21.1513 20.848 25.6618 15.3039 25.6618Z" fill="white"/>
<path d="M15.305 7.42719C10.7945 7.42719 7.125 11.0968 7.125 15.6072C7.125 20.1176 10.7944 23.7871 15.305 23.7871C19.8155 23.7871 23.485 20.1176 23.485 15.6072C23.485 11.0968 19.8155 7.42719 15.305 7.42719ZM19.497 14.8141L14.4061 18.5324C14.2445 18.6505 14.0506 18.7129 13.8532 18.7129C13.8023 18.7129 13.7512 18.7088 13.7004 18.7004C13.4522 18.6593 13.2308 18.5202 13.0861 18.3143L11.5633 16.1461C11.2658 15.7224 11.368 15.1377 11.7916 14.8402C12.2153 14.5426 12.7999 14.6449 13.0975 15.0685L14.0715 16.4553L18.3913 13.3002C18.8094 12.995 19.3958 13.0861 19.7011 13.5042C20.0064 13.9223 19.915 14.5086 19.497 14.8141Z" fill="white"/>
</svg>
