<svg width="30" height="30" viewBox="0 0 30 30" fill="none" xmlns="http://www.w3.org/2000/svg">
<path d="M28.5 14.469V28.5C28.5 28.8978 28.342 29.2794 28.0607 29.5607C27.7794 29.842 27.3978 30 27 30H3.00001C2.60218 30 2.22065 29.842 1.93935 29.5607C1.65804 29.2794 1.50001 28.8978 1.50001 28.5V14.469C0.531481 13.3739 -0.00216491 11.9619 6.60123e-06 10.5V1.5C6.60123e-06 1.10218 0.158042 0.720644 0.439346 0.43934C0.720651 0.158035 1.10218 0 1.50001 0H28.5C28.8978 0 29.2794 0.158035 29.5607 0.43934C29.842 0.720644 30 1.10218 30 1.5V10.5C30 12.021 29.433 13.41 28.5 14.469ZM18 10.5C18 10.1022 18.158 9.72065 18.4393 9.43934C18.7206 9.15804 19.1022 9 19.5 9C19.8978 9 20.2794 9.15804 20.5607 9.43934C20.842 9.72065 21 10.1022 21 10.5C21 11.2956 21.3161 12.0587 21.8787 12.6213C22.4413 13.1839 23.2044 13.5 24 13.5C24.7957 13.5 25.5587 13.1839 26.1213 12.6213C26.6839 12.0587 27 11.2956 27 10.5V3H3.00001V10.5C3.00001 11.2956 3.31608 12.0587 3.87869 12.6213C4.44129 13.1839 5.20436 13.5 6.00001 13.5C6.79565 13.5 7.55872 13.1839 8.12133 12.6213C8.68393 12.0587 9 11.2956 9 10.5C9 10.1022 9.15804 9.72065 9.43935 9.43934C9.72065 9.15804 10.1022 9 10.5 9C10.8978 9 11.2794 9.15804 11.5607 9.43934C11.842 9.72065 12 10.1022 12 10.5C12 11.2956 12.3161 12.0587 12.8787 12.6213C13.4413 13.1839 14.2044 13.5 15 13.5C15.7957 13.5 16.5587 13.1839 17.1213 12.6213C17.6839 12.0587 18 11.2956 18 10.5Z" fill="white"/>
</svg>
