<svg width="31" height="31" viewBox="0 0 31 31" fill="none" xmlns="http://www.w3.org/2000/svg">
<path d="M22.0722 0.917847C24.2299 0.782986 26.3578 1.53221 27.9611 3.00069C29.4296 4.60403 30.1788 6.73183 30.059 8.90458V22.9001C30.1938 25.0729 29.4296 27.2007 27.9761 28.804C26.3727 30.2725 24.2299 31.0217 22.0722 30.8868H8.07652C5.90375 31.0217 3.77594 30.2725 2.17258 28.804C0.704091 27.2007 -0.0451398 25.0729 0.0897218 22.9001V8.90458C-0.0451398 6.73183 0.704091 4.60403 2.17258 3.00069C3.77594 1.53221 5.90375 0.782986 8.07652 0.917847H22.0722ZM21.6826 7.76576C20.7535 6.83672 19.255 6.83672 18.326 7.76576L17.322 8.78471C17.1722 8.93455 17.1722 9.18929 17.322 9.33913C17.322 9.33913 17.3514 9.36836 17.4038 9.42041L17.7724 9.78697C17.9856 9.9991 18.2517 10.264 18.5189 10.5304L19.4251 11.4361C19.6141 11.626 19.7396 11.7533 19.7495 11.7666C19.9144 11.9464 20.0193 12.1862 20.0193 12.4559C20.0193 12.9954 19.5847 13.4449 19.0303 13.4449C18.7755 13.4449 18.5358 13.34 18.371 13.1752L15.8685 10.6877C15.7486 10.5679 15.5389 10.5679 15.419 10.6877L8.27132 17.8353C7.77683 18.3298 7.49212 18.9891 7.47714 19.6934L7.38723 23.2447C7.38723 23.4395 7.44717 23.6194 7.58203 23.7542C7.71689 23.8891 7.89671 23.964 8.09151 23.964H11.6129C12.3322 23.964 13.0214 23.6793 13.5459 23.1698L23.6306 13.0553C24.5446 12.1263 24.5446 10.6278 23.6306 9.71375L21.6826 7.76576Z" fill="white"/>
</svg>
