<svg width="28" height="36" viewBox="0 0 28 36" fill="none" xmlns="http://www.w3.org/2000/svg">
<path d="M7.72354 23.1714C5.67513 21.1229 4.52434 18.3445 4.52434 15.4475C4.52434 12.5505 5.67513 9.77216 7.72354 7.72367C9.77195 5.67518 12.5502 4.52435 15.4471 4.52435C18.344 4.52435 21.1222 5.67518 23.1706 7.72367" fill="white"/>
<path d="M19.9796 12.8284C22.028 14.8769 23.1788 17.6552 23.1788 20.5522C23.1788 23.4492 22.028 26.2276 19.9796 28.2761C17.9312 30.3246 15.1529 31.4754 12.256 31.4754C9.35916 31.4754 6.58092 30.3246 4.53251 28.2761" fill="white"/>
<path d="M8.85681 18.5289C8.22522 17.1745 8.02562 15.6586 8.28511 14.1868C8.54459 12.715 9.25059 11.3588 10.3073 10.302C11.364 9.24528 12.7202 8.53925 14.1919 8.27976C15.6636 8.02026 17.1795 8.21987 18.5339 8.85148" fill="white"/>
<path d="M18.9557 16.5538C19.5873 17.9082 19.7869 19.4241 19.5274 20.8959C19.2679 22.3676 18.562 23.7239 17.5053 24.7806C16.4486 25.8374 15.0924 26.5434 13.6207 26.8029C12.149 27.0624 10.6331 26.8628 9.27874 26.2312" fill="white"/>
<path d="M19.9063 12.9513L23.1831 7.71729ZM7.70923 23.1918L4.52344 28.2892Z" fill="white"/>
</svg>
