<svg width="28" height="26" viewBox="0 0 28 26" fill="none" xmlns="http://www.w3.org/2000/svg">
<path d="M18.0527 16.4954H15.8211C15.3594 16.4954 14.9844 16.8699 14.9844 17.3321C14.9844 17.795 15.3594 18.1689 15.8211 18.1689H18.0527C18.5145 18.1689 18.8901 17.795 18.8901 17.3321C18.8901 16.8694 18.5145 16.4954 18.0527 16.4954Z" fill="white"/>
<path d="M22.3093 16.4954H20.0087C19.5469 16.4954 19.1719 16.8699 19.1719 17.3321C19.1719 17.795 19.5469 18.1689 20.0087 18.1689H22.3093C22.7709 18.1689 23.1449 17.795 23.1449 17.3321C23.1449 16.8694 22.7709 16.4954 22.3093 16.4954Z" fill="white"/>
<path d="M5.73552 9.2684H13.0925C13.5549 9.2684 13.9292 8.89419 13.9292 8.43189C13.9292 7.96912 13.5549 7.59491 13.0925 7.59491H5.73552C5.27321 7.59491 4.89844 7.96912 4.89844 8.43189C4.89834 8.8941 5.27312 9.2684 5.73552 9.2684Z" fill="white"/>
<path d="M26.8882 24.3253H25.7948V10.2109C25.7948 9.74857 25.4191 9.37379 24.9574 9.37379H23.1465V0.837078C23.1465 0.374777 22.7714 0 22.3098 0H20.0092C19.5474 0 19.1724 0.374777 19.1724 0.837078V9.37379H18.4365V0.837078C18.4365 0.374777 18.0609 0 17.5991 0H15.2991C14.8375 0 14.4629 0.374777 14.4629 0.837078V9.37379H2.76868C2.30638 9.37379 1.93103 9.74857 1.93103 10.2109V24.3253H0.837078C0.374302 24.3253 0 24.6998 0 25.1632C0 25.6255 0.374207 26 0.837078 26H2.76868H5.73509H13.092H24.9581H26.8893C27.351 26 27.7261 25.6255 27.7261 25.1632C27.7254 24.6992 27.351 24.3253 26.8882 24.3253ZM6.57122 24.3253V18.1685H12.2538V24.3253H6.57122Z" fill="white"/>
</svg>
