<svg width="30" height="30" viewBox="0 0 30 30" fill="none" xmlns="http://www.w3.org/2000/svg">
<path d="M16.5652 0.916983C15.9784 0.330022 15.1825 0.000177254 14.3525 0H3.12963C2.2996 0 1.50357 0.329728 0.916648 0.916648C0.329728 1.50357 0 2.2996 0 3.12963V14.3525C0.000177254 15.1825 0.330022 15.9784 0.916983 16.5652L13.4355 29.0837C14.0224 29.6704 14.8183 30 15.6482 30C16.478 30 17.2739 29.6704 17.8608 29.0837L29.0837 17.8608C29.6704 17.2739 30 16.478 30 15.6482C30 14.8183 29.6704 14.0224 29.0837 13.4355L16.5652 0.916983ZM7.82408 10.9537C6.99385 10.9535 6.1977 10.6235 5.61078 10.0363C5.02385 9.44907 4.69424 8.65276 4.69445 7.82252C4.69466 6.99228 5.02467 6.19613 5.61188 5.60921C6.19909 5.02229 6.99541 4.69268 7.82565 4.69289C8.65589 4.69309 9.45204 5.0231 10.039 5.61032C10.6259 6.19753 10.9555 6.99385 10.9553 7.82408C10.9551 8.65432 10.6251 9.45047 10.0379 10.0374C9.45064 10.6243 8.65432 10.9539 7.82408 10.9537Z" fill="white"/>
</svg>
