<svg width="32" height="31" viewBox="0 0 32 31" fill="none" xmlns="http://www.w3.org/2000/svg">
<path fill-rule="evenodd" clip-rule="evenodd" d="M0.0639634 0.848199C0.28053 0.198517 0.982754 -0.152595 1.63242 0.0639713L2.07041 0.209958C2.09224 0.217232 2.11398 0.22449 2.13567 0.231715C3.17125 0.576859 4.04639 0.868551 4.73455 1.18868C5.46604 1.52898 6.10072 1.95072 6.582 2.61844C7.06326 3.28618 7.26266 4.02166 7.35417 4.82322C7.44028 5.57729 7.44025 6.49977 7.4402 7.59136V11.9868C7.4402 14.36 7.44284 16.0151 7.61073 17.2639C7.77383 18.4771 8.07217 19.1195 8.52974 19.5772C8.98733 20.0346 9.62975 20.3331 10.8429 20.4961C12.0917 20.664 13.7469 20.6667 16.12 20.6667H27.6932C28.378 20.6667 28.9331 21.2217 28.9331 21.9067C28.9331 22.5915 28.378 23.1466 27.6932 23.1466H16.0293C13.7683 23.1466 11.9458 23.1466 10.5124 22.9539C9.02429 22.7538 7.7713 22.3258 6.77615 21.3307C5.78101 20.3355 5.35297 19.0825 5.1529 17.5944C4.96019 16.1609 4.96021 14.3385 4.96024 12.0775V7.66015C4.96024 6.48135 4.95837 5.70137 4.89022 5.10451C4.82571 4.53935 4.71304 4.26673 4.57016 4.0685C4.42728 3.87027 4.20428 3.67717 3.68852 3.43724C3.14384 3.18385 2.40448 2.93541 1.28617 2.56266L0.848192 2.41665C0.198526 2.2001 -0.152586 1.49788 0.0639634 0.848199Z" fill="white"/>
<path d="M7.43359 6.20032C7.44179 6.62872 7.44179 7.09239 7.44178 7.59141L7.44176 11.9869C7.44176 14.36 7.44441 16.0152 7.6123 17.2641C7.6368 17.4463 7.66436 17.6157 7.69505 17.7734H24.4246C26.0107 17.7734 26.8038 17.7734 27.425 17.3639C28.0461 16.9542 28.3586 16.2253 28.9834 14.7674L29.692 13.1141C31.0303 9.99124 31.6994 8.42985 30.9644 7.31507C30.2293 6.20032 28.5306 6.20032 25.1332 6.20032H7.43359Z" fill="white"/>
<path d="M10.3315 26.0399C11.7012 26.0399 12.8115 27.1503 12.8115 28.5199C12.8115 29.8895 11.7012 30.9998 10.3315 30.9998C8.96187 30.9998 7.85156 29.8895 7.85156 28.5199C7.85156 27.1503 8.96187 26.0399 10.3315 26.0399Z" fill="white"/>
<path d="M27.6943 28.52C27.6943 27.1502 26.5839 26.04 25.2143 26.04C23.8447 26.04 22.7344 27.1502 22.7344 28.52C22.7344 29.8896 23.8447 30.9999 25.2143 30.9999C26.5839 30.9999 27.6943 29.8896 27.6943 28.52Z" fill="white"/>
</svg>
