<svg width="26" height="35" viewBox="0 0 26 35" fill="none" xmlns="http://www.w3.org/2000/svg">
<path d="M25.8605 25.6667L24.0051 10.0905C23.7947 8.32883 22.282 7 20.4833 7H18.9091V9.33333H19.5C19.8262 9.33333 20.0909 9.59467 20.0909 9.91667C20.0909 10.2387 19.8262 10.5 19.5 10.5H6.5C6.17382 10.5 5.90909 10.2387 5.90909 9.91667C5.90909 9.59467 6.17382 9.33333 6.5 9.33333H7.09091V7H5.51673C3.718 7 2.20527 8.32883 1.99491 10.0905L0.139455 25.6667H25.8605ZM16.5455 14C17.1978 14 17.7273 14.5227 17.7273 15.1667C17.7273 15.8107 17.1978 16.3333 16.5455 16.3333C15.8931 16.3333 15.3636 15.8107 15.3636 15.1667C15.3636 14.5227 15.8931 14 16.5455 14ZM16.5455 17.5C17.1978 17.5 17.7273 18.0227 17.7273 18.6667C17.7273 19.3107 17.1978 19.8333 16.5455 19.8333C15.8931 19.8333 15.3636 19.3107 15.3636 18.6667C15.3636 18.0227 15.8931 17.5 16.5455 17.5ZM16.5455 21C17.1978 21 17.7273 21.5227 17.7273 22.1667C17.7273 22.8107 17.1978 23.3333 16.5455 23.3333C15.8931 23.3333 15.3636 22.8107 15.3636 22.1667C15.3636 21.5227 15.8931 21 16.5455 21ZM13 14C13.6524 14 14.1818 14.5227 14.1818 15.1667C14.1818 15.8107 13.6524 16.3333 13 16.3333C12.3476 16.3333 11.8182 15.8107 11.8182 15.1667C11.8182 14.5227 12.3476 14 13 14ZM13 17.5C13.6524 17.5 14.1818 18.0227 14.1818 18.6667C14.1818 19.3107 13.6524 19.8333 13 19.8333C12.3476 19.8333 11.8182 19.3107 11.8182 18.6667C11.8182 18.0227 12.3476 17.5 13 17.5ZM13 21C13.6524 21 14.1818 21.5227 14.1818 22.1667C14.1818 22.8107 13.6524 23.3333 13 23.3333C12.3476 23.3333 11.8182 22.8107 11.8182 22.1667C11.8182 21.5227 12.3476 21 13 21ZM9.45455 14C10.1069 14 10.6364 14.5227 10.6364 15.1667C10.6364 15.8107 10.1069 16.3333 9.45455 16.3333C8.80218 16.3333 8.27273 15.8107 8.27273 15.1667C8.27273 14.5227 8.80218 14 9.45455 14ZM9.45455 17.5C10.1069 17.5 10.6364 18.0227 10.6364 18.6667C10.6364 19.3107 10.1069 19.8333 9.45455 19.8333C8.80218 19.8333 8.27273 19.3107 8.27273 18.6667C8.27273 18.0227 8.80218 17.5 9.45455 17.5ZM9.45455 21C10.1069 21 10.6364 21.5227 10.6364 22.1667C10.6364 22.8107 10.1069 23.3333 9.45455 23.3333C8.80218 23.3333 8.27273 22.8107 8.27273 22.1667C8.27273 21.5227 8.80218 21 9.45455 21ZM16.5455 0H9.45455C8.80218 0 8.27273 0.522667 8.27273 1.16667V7V9.33333H17.7273V7V1.16667C17.7273 0.522667 17.1978 0 16.5455 0ZM14.7727 7H11.2273C10.9011 7 10.6364 6.73867 10.6364 6.41667C10.6364 6.09467 10.9011 5.83333 11.2273 5.83333H14.7727C15.0989 5.83333 15.3636 6.09467 15.3636 6.41667C15.3636 6.73867 15.0989 7 14.7727 7ZM14.7727 4.66667H11.2273C10.9011 4.66667 10.6364 4.40533 10.6364 4.08333C10.6364 3.76133 10.9011 3.5 11.2273 3.5H14.7727C15.0989 3.5 15.3636 3.76133 15.3636 4.08333C15.3636 4.40533 15.0989 4.66667 14.7727 4.66667ZM0 31.5C0 33.4332 1.58718 35 3.54545 35H22.4545C24.4128 35 26 33.4332 26 31.5V26.8333H0V31.5ZM10.0455 30.3333H15.9545C16.2807 30.3333 16.5455 30.5947 16.5455 30.9167C16.5455 31.2387 16.2807 31.5 15.9545 31.5H10.0455C9.71927 31.5 9.45455 31.2387 9.45455 30.9167C9.45455 30.5947 9.71927 30.3333 10.0455 30.3333Z" fill="white"/>
</svg>
